<svg width="28" height="28" viewBox="0 0 28 28" fill="none" xmlns="http://www.w3.org/2000/svg">
<rect x="0.5" y="0.5" width="27" height="27" rx="3.5" fill="#91D739" fill-opacity="0.05"/>
<rect x="0.5" y="0.5" width="27" height="27" rx="3.5" fill="url(#paint0_linear_218_1684)" fill-opacity="0.05"/>
<rect x="0.5" y="0.5" width="27" height="27" rx="3.5" fill="url(#paint1_radial_218_1684)" fill-opacity="0.2"/>
<rect x="0.5" y="0.5" width="27" height="27" rx="3.5" stroke="#91D739"/>
<rect x="0.5" y="0.5" width="27" height="27" rx="3.5" stroke="url(#paint2_linear_218_1684)"/>
<rect x="0.5" y="0.5" width="27" height="27" rx="3.5" stroke="url(#paint3_radial_218_1684)" stroke-opacity="0.2"/>
<path fill-rule="evenodd" clip-rule="evenodd" d="M14.625 6.29175C14.625 5.94657 14.3452 5.66675 14 5.66675C13.6548 5.66675 13.375 5.94657 13.375 6.29175V8.37508C13.375 8.72026 13.6548 9.00008 14 9.00008C14.3452 9.00008 14.625 8.72026 14.625 8.37508V6.29175ZM14.625 19.8334C14.625 19.4882 14.3452 19.2084 14 19.2084C13.6548 19.2084 13.375 19.4882 13.375 19.8334V21.7084C13.375 22.0536 13.6548 22.3334 14 22.3334C14.3452 22.3334 14.625 22.0536 14.625 21.7084V19.8334ZM19.8926 8.10759C20.1367 8.35167 20.1367 8.7474 19.8926 8.99147L18.4195 10.4646C18.1754 10.7087 17.7797 10.7087 17.5356 10.4646C17.2915 10.2205 17.2915 9.82481 17.5356 9.58073L19.0087 8.10759C19.2528 7.86351 19.6485 7.86351 19.8926 8.10759ZM10.3172 18.5669C10.5613 18.3228 10.5613 17.9271 10.3172 17.683C10.0731 17.4389 9.6774 17.4389 9.43332 17.683L8.1075 19.0088C7.86342 19.2529 7.86342 19.6486 8.1075 19.8927C8.35157 20.1368 8.7473 20.1368 8.99138 19.8927L10.3172 18.5669ZM22.3334 14.0001C22.3334 14.3453 22.0535 14.6251 21.7084 14.6251H19.625C19.2798 14.6251 19 14.3453 19 14.0001C19 13.6549 19.2798 13.3751 19.625 13.3751H21.7084C22.0535 13.3751 22.3334 13.6549 22.3334 14.0001ZM8.16669 14.6251C8.51186 14.6251 8.79169 14.3453 8.79169 14.0001C8.79169 13.6549 8.51186 13.3751 8.16669 13.3751H6.29169C5.94651 13.3751 5.66669 13.6549 5.66669 14.0001C5.66669 14.3453 5.94651 14.6251 6.29169 14.6251H8.16669ZM19.8927 19.8927C19.6486 20.1367 19.2529 20.1367 19.0088 19.8927L17.5357 18.4195C17.2916 18.1754 17.2916 17.7797 17.5357 17.5356C17.7798 17.2916 18.1755 17.2916 18.4196 17.5356L19.8927 19.0088C20.1368 19.2529 20.1368 19.6486 19.8927 19.8927ZM9.43323 10.3173C9.67731 10.5613 10.073 10.5613 10.3171 10.3173C10.5612 10.0732 10.5612 9.67746 10.3171 9.43338L8.99129 8.10756C8.74721 7.86348 8.35148 7.86348 8.1074 8.10756C7.86333 8.35164 7.86333 8.74736 8.1074 8.99144L9.43323 10.3173Z" fill="white"/>
<defs>
<linearGradient id="paint0_linear_218_1684" x1="24.5921" y1="73.25" x2="-18.6345" y2="38.1658" gradientUnits="userSpaceOnUse">
<stop offset="0.0129322" stop-color="#34EE05"/>
<stop offset="0.500608" stop-color="#05EE2A"/>
<stop offset="1" stop-color="#03F38E" stop-opacity="0"/>
</linearGradient>
<radialGradient id="paint1_radial_218_1684" cx="0" cy="0" r="1" gradientUnits="userSpaceOnUse" gradientTransform="translate(26.25 28) rotate(-142.206) scale(17.1338 85.2591)">
<stop stop-color="#4EE209"/>
<stop offset="1" stop-color="#09E212" stop-opacity="0"/>
</radialGradient>
<linearGradient id="paint2_linear_218_1684" x1="24.5921" y1="73.25" x2="-18.6345" y2="38.1658" gradientUnits="userSpaceOnUse">
<stop offset="0.0129322" stop-color="#34EE05"/>
<stop offset="0.500608" stop-color="#05EE2A"/>
<stop offset="1" stop-color="#03F38E" stop-opacity="0"/>
</linearGradient>
<radialGradient id="paint3_radial_218_1684" cx="0" cy="0" r="1" gradientUnits="userSpaceOnUse" gradientTransform="translate(26.25 28) rotate(-142.206) scale(17.1338 85.2591)">
<stop stop-color="#4EE209"/>
<stop offset="1" stop-color="#09E212" stop-opacity="0"/>
</radialGradient>
</defs>
</svg>
